<?xml version="1.0" encoding="UTF-8" standalone="no"?>
<svg
   xmlns:dc="http://purl.org/dc/elements/1.1/"
   xmlns:cc="http://creativecommons.org/ns#"
   xmlns:rdf="http://www.w3.org/1999/02/22-rdf-syntax-ns#"
   xmlns:svg="http://www.w3.org/2000/svg"
   xmlns="http://www.w3.org/2000/svg"
   xmlns:sodipodi="http://sodipodi.sourceforge.net/DTD/sodipodi-0.dtd"
   xmlns:inkscape="http://www.inkscape.org/namespaces/inkscape"
   version="1.1"
   id="Layer_1"
   width="300px"
   height="300x"
   viewBox="0 0 300 300"
   enable-background="new 0 0 300 300"
   sodipodi:docname="cpp-c.svg"
   inkscape:version="1.0.2-2 (e86c870879, 2021-01-15)">
  <metadata
     id="metadata25">
    <rdf:RDF>
      <cc:Work
         rdf:about="">
        <dc:format>image/svg+xml</dc:format>
        <dc:type
           rdf:resource="http://purl.org/dc/dcmitype/StillImage" />
      </cc:Work>
    </rdf:RDF>
  </metadata>
  <defs
     id="defs23" />
  <sodipodi:namedview
     pagecolor="#ffffff"
     bordercolor="#666666"
     borderopacity="1"
     objecttolerance="10"
     gridtolerance="10"
     guidetolerance="10"
     inkscape:pageopacity="0"
     inkscape:pageshadow="2"
     inkscape:window-width="1280"
     inkscape:window-height="907"
     id="namedview21"
     showgrid="false"
     inkscape:zoom="1.8266667"
     inkscape:cx="146.5023"
     inkscape:cy="150"
     inkscape:window-x="-8"
     inkscape:window-y="367"
     inkscape:window-maximized="1"
     inkscape:current-layer="Layer_1" />
  <path
     fill="#00599c"
     d="m 279.90337,225.00026 c 2.09181,-3.6234 3.39164,-7.70585 3.39164,-11.37196 V 86.371675 c 0,-3.666049 -1.29811,-7.747658 -3.39074,-11.371019 l -129.9043,74.999854 z"
     id="path2"
     style="stroke-width:0.871213" />
  <path
     fill="#004482"
     d="m 161.54346,297.25051 110.20801,-63.62794 c 3.17476,-1.83302 6.06009,-4.99815 8.1519,-8.62231 L 149.99997,150.00051 20.096607,225.00125 c 2.091772,3.62317 4.978091,6.78925 8.151901,8.62132 l 110.207972,63.62794 c 6.34849,3.66599 16.73855,3.66599 23.08698,0 z"
     id="path4"
     style="stroke-width:0.871213" />
  <path
     fill="#659ad2"
     d="m 279.90427,74.999787 c -2.09271,-3.624232 -4.97892,-6.789337 -8.1528,-8.622359 L 161.54346,2.749537 c -6.34843,-3.6660497 -16.73849,-3.6660497 -23.08698,0 L 28.248508,66.377428 C 21.89914,70.042601 16.70499,79.040451 16.70499,86.371675 V 213.6283 c 0,3.66611 1.298973,7.74856 3.391617,11.37196 L 149.99997,150.00051 Z"
     id="path6"
     style="stroke-width:0.871213" />
  <g
     id="g10"
     transform="matrix(0.87120917,0,0,0.87120917,16.70499,0)">
    <path
       fill="#ffffff"
       d="m 153,274.175 c -56.243,0 -102,-45.757 -102,-102 0,-56.243 45.757,-102 102,-102 36.292,0 70.139,19.53 88.331,50.968 l -44.143,25.544 C 188.083,130.951 171.15,121.175 153,121.175 c -28.122,0 -51,22.878 -51,51 0,28.121 22.878,51 51,51 18.152,0 35.085,-9.776 44.191,-25.515 l 44.143,25.543 c -18.192,31.441 -52.04,50.972 -88.334,50.972 z"
       id="path8" />
  </g>
  <g
     id="g14"
     transform="matrix(0.87120917,0,0,0.87120917,16.70499,0)">
    <polygon
       fill="#ffffff"
       points="232.334,177.841 232.334,189.175 243.666,189.175 243.666,177.841 255,177.841 255,166.508 243.666,166.508 243.666,155.175 232.334,155.175 232.334,166.508 221,166.508 221,177.841 "
       id="polygon12" />
  </g>
  <g
     id="g18"
     transform="matrix(0.87120917,0,0,0.87120917,16.70499,0)">
    <polygon
       fill="#ffffff"
       points="274.834,177.841 274.834,189.175 286.166,189.175 286.166,177.841 297.5,177.841 297.5,166.508 286.166,166.508 286.166,155.175 274.834,155.175 274.834,166.508 263.5,166.508 263.5,177.841 "
       id="polygon16" />
  </g>
</svg>
