<?xml version="1.0" encoding="UTF-8" standalone="no"?>
<svg
   xmlns:dc="http://purl.org/dc/elements/1.1/"
   xmlns:cc="http://creativecommons.org/ns#"
   xmlns:rdf="http://www.w3.org/1999/02/22-rdf-syntax-ns#"
   xmlns:svg="http://www.w3.org/2000/svg"
   xmlns="http://www.w3.org/2000/svg"
   xmlns:sodipodi="http://sodipodi.sourceforge.net/DTD/sodipodi-0.dtd"
   xmlns:inkscape="http://www.inkscape.org/namespaces/inkscape"
   viewBox="0 0 50 50"
   version="1.1"
   id="svg4"
   sodipodi:docname="html.svg"
   inkscape:version="1.0.2-2 (e86c870879, 2021-01-15)">
  <metadata
     id="metadata10">
    <rdf:RDF>
      <cc:Work
         rdf:about="">
        <dc:format>image/svg+xml</dc:format>
        <dc:type
           rdf:resource="http://purl.org/dc/dcmitype/StillImage" />
      </cc:Work>
    </rdf:RDF>
  </metadata>
  <defs
     id="defs8" />
  <sodipodi:namedview
     pagecolor="#ffffff"
     bordercolor="#666666"
     borderopacity="1"
     objecttolerance="10"
     gridtolerance="10"
     guidetolerance="10"
     inkscape:pageopacity="0"
     inkscape:pageshadow="2"
     inkscape:window-width="1920"
     inkscape:window-height="1027"
     id="namedview6"
     showgrid="false"
     inkscape:snap-grids="true"
     showguides="true"
     inkscape:guide-bbox="true"
     inkscape:zoom="10.96"
     inkscape:cx="36.525539"
     inkscape:cy="28.232122"
     inkscape:window-x="2638"
     inkscape:window-y="-8"
     inkscape:window-maximized="1"
     inkscape:current-layer="svg4" />
  <path
     d="M 47.036594,0.353262 C 46.830073,0.12826183 46.539859,1.005e-6 46.234422,1.005e-6 H 3.7648288 C 3.4593937,1.005e-6 3.1691763,0.12826183 2.9626547,0.353262 2.7561324,0.5782622 2.6550452,0.8804366 2.6822195,1.1836976 L 6.5083094,44.039159 c 0.04021,0.447829 0.352174,0.825002 0.784783,0.948915 l 17.4032736,4.970655 c 0.09672,0.02719 0.196736,0.04127 0.297829,0.04127 0.10106,0 0.201085,-0.01415 0.297821,-0.04127 l 17.417406,-4.970655 c 0.432606,-0.123913 0.744562,-0.501086 0.784785,-0.948915 L 47.318116,1.1836976 C 47.344217,0.8793495 47.242035,0.5782622 47.036594,0.353262 Z M 37.876812,15.129361 H 17.430055 l 0.48587,5.532612 h 19.468492 l -1.459787,16.347839 -10.931527,3.30543 -0.107609,-0.03263 -10.80653,-3.273915 -0.589129,-6.663048 h 5.292397 l 0.232609,2.586958 6.039132,1.265225 5.931525,-1.267394 0.631522,-6.99457 H 13.092008 L 11.656142,9.841315 h 26.694584 z"
     id="path2"
     style="stroke-width:1.08693" />
</svg>
