<?xml version="1.0" encoding="utf-8"?>
<!-- Generator: Adobe Illustrator 24.1.1, SVG Export Plug-In . SVG Version: 6.00 Build 0)  -->
<svg version="1.1" id="Layer_1" xmlns="http://www.w3.org/2000/svg" xmlns:xlink="http://www.w3.org/1999/xlink" x="0px" y="0px" viewBox="0 0 512 512" style="enable-background:new 0 0 512 512;" xml:space="preserve">
	<style type="text/css">
	.st0{fill:#4287f5;}
</style>
	<g>
		<path class="st0" d="M256,512c-121.1,0-219.4-32.8-219.4-73.1c0-22.1,0-46.2,0-73.2c0-6.3,3.2-12.4,7.8-18.3
		c24.5,31.5,109.5,54.9,211.7,54.9s187.2-23.4,211.7-54.9c4.6,5.9,7.7,11.9,7.7,18.3c0,21.2,0,43.7,0,73.2
		C475.4,479.2,377.1,512,256,512L256,512z M256,365.7c-121.1,0-219.4-32.8-219.4-73.1c0-22.1,0-46.2,0-73.1c0-3.9,1.5-7.6,3.4-11.4
		c1.1-2.3,2.6-4.6,4.3-6.9C68.8,232.6,153.9,256,256,256s187.2-23.4,211.7-54.9c1.8,2.3,3.2,4.6,4.3,6.9c2,3.7,3.4,7.5,3.4,11.4
		c0,21.2,0,43.6,0,73.1C475.4,332.9,377.2,365.7,256,365.7L256,365.7z M256,219.4c-121.1,0-219.4-32.8-219.4-73.1
		c0-11.6,0-23.8,0-36.6c0-11.6,0-23.7,0-36.6C36.6,32.8,134.8,0,256,0c121.1,0,219.4,32.8,219.4,73.1c0,11.4,0,23.5,0,36.6
		c0,11.2,0,23,0,36.6C475.4,186.7,377.1,219.4,256,219.4z M256,36.6c-80.8,0-146.3,16.3-146.3,36.6c0,20.2,65.5,36.6,146.3,36.6
		c80.8,0,146.3-16.3,146.3-36.6C402.2,52.9,336.7,36.6,256,36.6z" />
	</g>
</svg>