<?xml version="1.0" encoding="utf-8"?>
<!-- Svg Vector Icons : http://www.onlinewebfonts.com/icon -->
<svg version="1.1" xmlns="http://www.w3.org/2000/svg" xmlns:xlink="http://www.w3.org/1999/xlink" x="0px" y="0px" viewBox="0 0 1000 1000" enable-background="new 0 0 1000 1000" xml:space="preserve">
    <metadata>
        Svg Vector Icons : http://www.onlinewebfonts.com/icon
    </metadata>
    <g>
        <path d="M938.3,194.2C938.3,92.5,742.1,10,500.1,10C263.9,10,71.8,88.7,62.8,187.1h-1.2v624.1h1C69.4,910.4,262.4,990,500.1,990s430.7-79.6,437.5-178.8h0.8V194.2H938.3z M894.1,806c-0.1,77.8-176.6,140.9-394.4,140.9c-214.6,0-388.7-61.2-393.9-137.5V664.4c70.9,61.6,220.5,104.2,394.2,104.2c173.6,0,323.1-42.6,394-104L894.1,806L894.1,806z M894.1,584.6c-0.1,77.8-176.6,140.9-394.4,140.9c-214.6,0-388.7-61.2-393.9-137.5V469.4c70.9,61.6,220.5,104.2,394.2,104.2c173.6,0,323.1-42.5,394-104L894.1,584.6L894.1,584.6z M894.1,389.5c-0.1,77.8-176.6,140.9-394.4,140.9c-214.6,0-388.7-61.2-393.9-137.5V274.3c70.9,61.6,220.5,104.2,394.2,104.2c173.6,0,323.1-42.6,394-104L894.1,389.5L894.1,389.5z M894.1,194.4c-0.1,77.8-176.6,140.9-394.4,140.9c-214.6,0-388.7-61.2-393.9-137.5V191C111,114.8,285.2,53.5,499.7,53.5C717.5,53.5,894.1,116.6,894.1,194.4L894.1,194.4z" />
    </g>
</svg>