<?xml version="1.0" encoding="UTF-8" standalone="no"?>
<svg
   width="500"
   height="500"
   viewBox="500 0 90 500"
   fill="none"
   version="1.1"
   id="svg8"
   sodipodi:docname="streamlit-c2.svg"
   inkscape:version="1.1.1 (3bf5ae0d25, 2021-09-20, custom)"
   xmlns:inkscape="http://www.inkscape.org/namespaces/inkscape"
   xmlns:sodipodi="http://sodipodi.sourceforge.net/DTD/sodipodi-0.dtd"
   xmlns="http://www.w3.org/2000/svg"
   xmlns:svg="http://www.w3.org/2000/svg">
  <defs
     id="defs12" />
  <sodipodi:namedview
     id="namedview10"
     pagecolor="#ffffff"
     bordercolor="#666666"
     borderopacity="1.0"
     inkscape:pageshadow="2"
     inkscape:pageopacity="0.0"
     inkscape:pagecheckerboard="0"
     showgrid="false"
     inkscape:zoom="1.454"
     inkscape:cx="165.40578"
     inkscape:cy="286.79505"
     inkscape:window-width="1920"
     inkscape:window-height="1051"
     inkscape:window-x="0"
     inkscape:window-y="29"
     inkscape:window-maximized="1"
     inkscape:current-layer="svg8" />
  <path
     d="M 544.9705,282.88676 458.40064,237.12617 308.12859,157.70385 c -0.13866,-0.13863 -0.41183,-0.13863 -0.54998,-0.13863 -5.48625,-2.60575 -11.11058,2.88021 -9.05328,8.36834 l 76.56997,195.29218 0.009,0.0399 c 0.0816,0.19107 0.14977,0.38368 0.23201,0.57619 3.14243,7.28392 9.99988,11.78246 17.46304,13.55214 0.63026,0.13664 1.0813,0.26149 1.83848,0.41324 0.75387,0.16764 1.80912,0.39665 2.71428,0.46389 0.1516,0.009 0.28814,0.009 0.43966,0.0252 h 0.10916 c 0.1078,0.008 0.21912,0.008 0.32926,0.0258 h 0.15004 c 0.0953,0.008 0.20564,0.008 0.30301,0.008 h 0.1778 c 0.1097,0.008 0.2187,0.008 0.3291,0.008 v 0 c 96.97284,10.57253 194.80631,10.57253 291.77916,0 v 0 c 1.16541,0 2.30452,-0.0533 3.40059,-0.16444 0.35718,-0.0402 0.6998,-0.0813 1.04385,-0.12364 0.0398,-0.008 0.0934,-0.008 0.13696,-0.0249 0.23382,-0.0252 0.46573,-0.0671 0.69957,-0.10935 0.34249,-0.0405 0.68657,-0.10965 1.02857,-0.17815 0.68677,-0.15105 0.9978,-0.2614 1.92963,-0.58075 0.92993,-0.3194 2.47544,-0.87898 3.44158,-1.34469 0.96802,-0.46785 1.63774,-0.91378 2.44785,-1.4224 1.00092,-0.63058 1.95374,-1.27613 2.92007,-2.00011 0.41659,-0.31921 0.7011,-0.52321 1.00258,-0.81128 l -0.16458,-0.0944 z"
     fill="#ff4b4b"
     id="path2"
     style="stroke-width:1.64597" />
  <path
     d="m 782.06077,157.70545 h -0.13744 l -150.32804,79.42243 83.56558,124.45674 76.37706,-195.64925 v -0.2747 c 1.9213,-5.7611 -3.97677,-10.97249 -9.4778,-7.95522"
     fill="#7d353b"
     id="path4"
     style="stroke-width:1.64597" />
  <path
     d="m 552.98194,119.93974 c -3.84201,-5.60965 -12.20901,-5.60965 -15.91272,0 l -78.66858,117.18643 86.56986,45.76059 164.0581,86.70595 c 1.03021,-1.00883 1.85644,-1.99159 2.72902,-3.03025 1.23441,-1.52254 2.38662,-3.1555 3.40219,-4.97931 L 631.59434,237.12617 Z"
     fill="#bd4043"
     id="path6"
     style="stroke-width:1.64597" />
</svg>
